# xmcd
#
# Track frame offsets:
#	150
#	9947
#	24180
#	35742
#	48903
#	59901
#	71638
#	84170
#	95479
#	105958
#	115876
#	134558
#	144584
#	160577
#
# Disc length: 2247 seconds
#
# Revision: 1
# Processed by: cddbd v1.4PL0 Copyright (c) Steve Scherf et al.
# Submitted via: audiograbber 1.82.01
#
DISCID=b208c50e
DTITLE=Joy Adams - Two Minus One
DYEAR=2001
DGENRE=Country
TTITLE0=I Know You Don't Love Me No More
TTITLE1=Two Minus One (duet with Kenny Dale)
TTITLE2=Let's Try Love Tonight
TTITLE3=You Crossed My Mind A Thousand Times Today
TTITLE4=Walk On By
TTITLE5=Love Is No Excuse
TTITLE6=I Talked To The Stars
TTITLE7=Waltz Across Texas
TTITLE8=Sugar Moon
TTITLE9=Steady Company (duet with Ernie Ashworth)
TTITLE10=Now I Know About Love
TTITLE11=Lost Somehere In A Memory
TTITLE12=I Can't Stop Myself From Loving You
TTITLE13=Why Don't We Admit We're In Love (duet with Dewayne Orender)
EXTD=
EXTT0=
EXTT1=
EXTT2=
EXTT3=
EXTT4=
EXTT5=
EXTT6=
EXTT7=
EXTT8=
EXTT9=
EXTT10=
EXTT11=
EXTT12=
EXTT13=
PLAYORDER=
